<mxfile host="app.diagrams.net" modified="2024-03-22T02:41:22.058Z" agent="Mozilla/5.0 (Windows NT 10.0; Win64; x64) AppleWebKit/537.36 (KHTML, like Gecko) Chrome/123.0.0.0 Safari/537.36" etag="lJa7aaB3aZ3wNBHL8Mkd" version="24.0.7" type="github">
  <diagram name="Page-1" id="a1vDinpQHzUYr8kOyvSg">
    <mxGraphModel dx="1434" dy="780" grid="1" gridSize="10" guides="1" tooltips="1" connect="1" arrows="1" fold="1" page="1" pageScale="1" pageWidth="850" pageHeight="1100" math="0" shadow="0">
      <root>
        <mxCell id="0" />
        <mxCell id="1" parent="0" />
        <mxCell id="wq1DmGSD5hFl_NsV_wQN-21" value="" style="edgeStyle=orthogonalEdgeStyle;rounded=0;orthogonalLoop=1;jettySize=auto;html=1;" edge="1" parent="1" source="wq1DmGSD5hFl_NsV_wQN-1" target="wq1DmGSD5hFl_NsV_wQN-20">
          <mxGeometry relative="1" as="geometry" />
        </mxCell>
        <mxCell id="wq1DmGSD5hFl_NsV_wQN-1" value="Start" style="html=1;dashed=0;whiteSpace=wrap;shape=mxgraph.dfd.start" vertex="1" parent="1">
          <mxGeometry x="180" y="150" width="80" height="30" as="geometry" />
        </mxCell>
        <mxCell id="wq1DmGSD5hFl_NsV_wQN-7" value="" style="edgeStyle=orthogonalEdgeStyle;rounded=0;orthogonalLoop=1;jettySize=auto;html=1;" edge="1" parent="1" source="wq1DmGSD5hFl_NsV_wQN-2" target="wq1DmGSD5hFl_NsV_wQN-16">
          <mxGeometry relative="1" as="geometry">
            <mxPoint x="490" y="375" as="targetPoint" />
          </mxGeometry>
        </mxCell>
        <mxCell id="wq1DmGSD5hFl_NsV_wQN-10" value="" style="edgeStyle=orthogonalEdgeStyle;rounded=0;orthogonalLoop=1;jettySize=auto;html=1;" edge="1" parent="1" source="wq1DmGSD5hFl_NsV_wQN-2" target="wq1DmGSD5hFl_NsV_wQN-9">
          <mxGeometry relative="1" as="geometry" />
        </mxCell>
        <mxCell id="wq1DmGSD5hFl_NsV_wQN-2" value="if locator" style="rhombus;whiteSpace=wrap;html=1;dashed=0;" vertex="1" parent="1">
          <mxGeometry x="180" y="405" width="80" height="80" as="geometry" />
        </mxCell>
        <mxCell id="wq1DmGSD5hFl_NsV_wQN-8" value="True" style="text;html=1;align=center;verticalAlign=middle;resizable=0;points=[];autosize=1;strokeColor=none;fillColor=none;" vertex="1" parent="1">
          <mxGeometry x="250" y="405" width="50" height="30" as="geometry" />
        </mxCell>
        <mxCell id="wq1DmGSD5hFl_NsV_wQN-15" style="edgeStyle=orthogonalEdgeStyle;rounded=0;orthogonalLoop=1;jettySize=auto;html=1;exitX=0.5;exitY=1;exitDx=0;exitDy=0;" edge="1" parent="1" source="wq1DmGSD5hFl_NsV_wQN-9" target="wq1DmGSD5hFl_NsV_wQN-14">
          <mxGeometry relative="1" as="geometry" />
        </mxCell>
        <mxCell id="wq1DmGSD5hFl_NsV_wQN-9" value="throw exception&lt;div&gt;print(&quot;details&quot;)&lt;/div&gt;" style="whiteSpace=wrap;html=1;dashed=0;" vertex="1" parent="1">
          <mxGeometry x="160" y="670" width="120" height="60" as="geometry" />
        </mxCell>
        <mxCell id="wq1DmGSD5hFl_NsV_wQN-11" value="False" style="text;html=1;align=center;verticalAlign=middle;resizable=0;points=[];autosize=1;strokeColor=none;fillColor=none;" vertex="1" parent="1">
          <mxGeometry x="150" y="485" width="50" height="30" as="geometry" />
        </mxCell>
        <mxCell id="wq1DmGSD5hFl_NsV_wQN-14" value="End" style="html=1;dashed=0;whiteSpace=wrap;shape=mxgraph.dfd.start" vertex="1" parent="1">
          <mxGeometry x="180" y="870" width="80" height="30" as="geometry" />
        </mxCell>
        <mxCell id="wq1DmGSD5hFl_NsV_wQN-18" value="" style="edgeStyle=orthogonalEdgeStyle;rounded=0;orthogonalLoop=1;jettySize=auto;html=1;" edge="1" parent="1" source="wq1DmGSD5hFl_NsV_wQN-16" target="wq1DmGSD5hFl_NsV_wQN-17">
          <mxGeometry relative="1" as="geometry" />
        </mxCell>
        <mxCell id="wq1DmGSD5hFl_NsV_wQN-16" value="does the file exist?" style="rhombus;whiteSpace=wrap;html=1;" vertex="1" parent="1">
          <mxGeometry x="290" y="235" width="95" height="90" as="geometry" />
        </mxCell>
        <mxCell id="wq1DmGSD5hFl_NsV_wQN-27" value="" style="edgeStyle=orthogonalEdgeStyle;rounded=0;orthogonalLoop=1;jettySize=auto;html=1;" edge="1" parent="1" source="wq1DmGSD5hFl_NsV_wQN-17" target="wq1DmGSD5hFl_NsV_wQN-26">
          <mxGeometry relative="1" as="geometry" />
        </mxCell>
        <mxCell id="wq1DmGSD5hFl_NsV_wQN-17" value="Find and Scrape date on locator" style="whiteSpace=wrap;html=1;" vertex="1" parent="1">
          <mxGeometry x="450" y="250" width="120" height="60" as="geometry" />
        </mxCell>
        <mxCell id="wq1DmGSD5hFl_NsV_wQN-19" value="False" style="text;html=1;align=center;verticalAlign=middle;resizable=0;points=[];autosize=1;strokeColor=none;fillColor=none;" vertex="1" parent="1">
          <mxGeometry x="370" y="245" width="50" height="30" as="geometry" />
        </mxCell>
        <mxCell id="wq1DmGSD5hFl_NsV_wQN-23" value="" style="edgeStyle=orthogonalEdgeStyle;rounded=0;orthogonalLoop=1;jettySize=auto;html=1;" edge="1" parent="1" source="wq1DmGSD5hFl_NsV_wQN-20" target="wq1DmGSD5hFl_NsV_wQN-22">
          <mxGeometry relative="1" as="geometry" />
        </mxCell>
        <mxCell id="wq1DmGSD5hFl_NsV_wQN-20" value="locator,&amp;nbsp;&lt;div&gt;locatorType,&lt;/div&gt;" style="shape=hexagon;perimeter=hexagonPerimeter2;whiteSpace=wrap;html=1;fixedSize=1;dashed=0;" vertex="1" parent="1">
          <mxGeometry x="170" y="210" width="100" height="75" as="geometry" />
        </mxCell>
        <mxCell id="wq1DmGSD5hFl_NsV_wQN-24" style="edgeStyle=orthogonalEdgeStyle;rounded=0;orthogonalLoop=1;jettySize=auto;html=1;" edge="1" parent="1" source="wq1DmGSD5hFl_NsV_wQN-22" target="wq1DmGSD5hFl_NsV_wQN-2">
          <mxGeometry relative="1" as="geometry" />
        </mxCell>
        <mxCell id="wq1DmGSD5hFl_NsV_wQN-22" value="filename" style="shape=parallelogram;perimeter=parallelogramPerimeter;whiteSpace=wrap;html=1;fixedSize=1;dashed=0;" vertex="1" parent="1">
          <mxGeometry x="172.5" y="310" width="95" height="60" as="geometry" />
        </mxCell>
        <mxCell id="wq1DmGSD5hFl_NsV_wQN-29" value="" style="edgeStyle=orthogonalEdgeStyle;rounded=0;orthogonalLoop=1;jettySize=auto;html=1;" edge="1" parent="1" source="wq1DmGSD5hFl_NsV_wQN-26" target="wq1DmGSD5hFl_NsV_wQN-28">
          <mxGeometry relative="1" as="geometry" />
        </mxCell>
        <mxCell id="wq1DmGSD5hFl_NsV_wQN-26" value="Create file using &#39;filename&#39;" style="whiteSpace=wrap;html=1;" vertex="1" parent="1">
          <mxGeometry x="450" y="335" width="120" height="60" as="geometry" />
        </mxCell>
        <mxCell id="wq1DmGSD5hFl_NsV_wQN-42" value="" style="edgeStyle=orthogonalEdgeStyle;rounded=0;orthogonalLoop=1;jettySize=auto;html=1;" edge="1" parent="1" source="wq1DmGSD5hFl_NsV_wQN-28" target="wq1DmGSD5hFl_NsV_wQN-41">
          <mxGeometry relative="1" as="geometry" />
        </mxCell>
        <mxCell id="wq1DmGSD5hFl_NsV_wQN-28" value="Write data on &#39;filename&#39;" style="whiteSpace=wrap;html=1;" vertex="1" parent="1">
          <mxGeometry x="450" y="425" width="120" height="60" as="geometry" />
        </mxCell>
        <mxCell id="wq1DmGSD5hFl_NsV_wQN-37" style="edgeStyle=orthogonalEdgeStyle;rounded=0;orthogonalLoop=1;jettySize=auto;html=1;exitX=0.5;exitY=0;exitDx=0;exitDy=0;" edge="1" parent="1" source="wq1DmGSD5hFl_NsV_wQN-16" target="wq1DmGSD5hFl_NsV_wQN-32">
          <mxGeometry relative="1" as="geometry">
            <Array as="points">
              <mxPoint x="338" y="190" />
              <mxPoint x="680" y="190" />
            </Array>
          </mxGeometry>
        </mxCell>
        <mxCell id="wq1DmGSD5hFl_NsV_wQN-43" style="edgeStyle=orthogonalEdgeStyle;rounded=0;orthogonalLoop=1;jettySize=auto;html=1;entryX=1;entryY=0.5;entryDx=0;entryDy=0;" edge="1" parent="1" source="wq1DmGSD5hFl_NsV_wQN-32" target="wq1DmGSD5hFl_NsV_wQN-41">
          <mxGeometry relative="1" as="geometry">
            <mxPoint x="680" y="560" as="targetPoint" />
            <Array as="points">
              <mxPoint x="680" y="545" />
            </Array>
          </mxGeometry>
        </mxCell>
        <mxCell id="wq1DmGSD5hFl_NsV_wQN-32" value="Read data from &#39;path&#39; and &#39;filename&#39;" style="whiteSpace=wrap;html=1;" vertex="1" parent="1">
          <mxGeometry x="620" y="245" width="120" height="60" as="geometry" />
        </mxCell>
        <mxCell id="wq1DmGSD5hFl_NsV_wQN-38" value="True" style="text;html=1;align=center;verticalAlign=middle;resizable=0;points=[];autosize=1;strokeColor=none;fillColor=none;" vertex="1" parent="1">
          <mxGeometry x="335" y="160" width="50" height="30" as="geometry" />
        </mxCell>
        <mxCell id="wq1DmGSD5hFl_NsV_wQN-45" value="" style="edgeStyle=orthogonalEdgeStyle;rounded=0;orthogonalLoop=1;jettySize=auto;html=1;" edge="1" parent="1" source="wq1DmGSD5hFl_NsV_wQN-41" target="wq1DmGSD5hFl_NsV_wQN-44">
          <mxGeometry relative="1" as="geometry" />
        </mxCell>
        <mxCell id="wq1DmGSD5hFl_NsV_wQN-41" value="Randomly choose data&amp;nbsp;" style="whiteSpace=wrap;html=1;" vertex="1" parent="1">
          <mxGeometry x="450" y="515" width="120" height="60" as="geometry" />
        </mxCell>
        <mxCell id="wq1DmGSD5hFl_NsV_wQN-46" style="edgeStyle=orthogonalEdgeStyle;rounded=0;orthogonalLoop=1;jettySize=auto;html=1;" edge="1" parent="1" source="wq1DmGSD5hFl_NsV_wQN-44" target="wq1DmGSD5hFl_NsV_wQN-14">
          <mxGeometry relative="1" as="geometry" />
        </mxCell>
        <mxCell id="wq1DmGSD5hFl_NsV_wQN-44" value="return data" style="whiteSpace=wrap;html=1;" vertex="1" parent="1">
          <mxGeometry x="450" y="855" width="120" height="60" as="geometry" />
        </mxCell>
      </root>
    </mxGraphModel>
  </diagram>
</mxfile>
